PathFileType	4	(X/Y/Z)	Walk6.trc
DataRate	CameraRate	NumFrames	NumMarkers	Units	OrigDataRate	OrigDataStartFrame	OrigNumFrames
200.000000	200.000000	7	60	mm	200.000000	628	752
Frame#	Times		RCAR		LTH3		RTH2		LBHD		LWRU		LCAR		LUA1		LFA1		LElbow		RTB3		RFA1		RToe		RASI		LElbowM		RMT5		RTB2		C7		RLFC		LTH2		RBHD		RPSI		LWRR		RMT1		RWRU		RTB1		LASI		RTB4		STRN		T10		CLAV		RBack		LPSI		RLMAL		RElbow		LTH4		LLFC		RUA1		LTB4		LACR1		LTB3		RCAL		LFHD		RTH3		LCAL		LTB1		LMMAL		RElbowM		RTH1		LTB2		RFHD		RACR1		LMFC		RTH4		RMFC		LLMAL		LMT5		RWRR		LTH1		LToe		LMT1
			X1	Y1	Z1	X2	Y2	Z2	X3	Y3	Z3	X4	Y4	Z4	X5	Y5	Z5	X6	Y6	Z6	X7	Y7	Z7	X8	Y8	Z8	X9	Y9	Z9	X10	Y10	Z10	X11	Y11	Z11	X12	Y12	Z12	X13	Y13	Z13	X14	Y14	Z14	X15	Y15	Z15	X16	Y16	Z16	X17	Y17	Z17	X18	Y18	Z18	X19	Y19	Z19	X20	Y20	Z20	X21	Y21	Z21	X22	Y22	Z22	X23	Y23	Z23	X24	Y24	Z24	X25	Y25	Z25	X26	Y26	Z26	X27	Y27	Z27	X28	Y28	Z28	X29	Y29	Z29	X30	Y30	Z30	X31	Y31	Z31	X32	Y32	Z32	X33	Y33	Z33	X34	Y34	Z34	X35	Y35	Z35	X36	Y36	Z36	X37	Y37	Z37	X38	Y38	Z38	X39	Y39	Z39	X40	Y40	Z40	X41	Y41	Z41	X42	Y42	Z42	X43	Y43	Z43	X44	Y44	Z44	X45	Y45	Z45	X46	Y46	Z46	X47	Y47	Z47	X48	Y48	Z48	X49	Y49	Z49	X50	Y50	Z50	X51	Y51	Z51	X52	Y52	Z52	X53	Y53	Z53	X54	Y54	Z54	X55	Y55	Z55	X56	Y56	Z56	X57	Y57	Z57	X58	Y58	Z58	X59	Y59	Z59	X60	Y60	Z60

628	3.14	573.01	916.84	367.23	386.16	616.82	-127.64	326.04	692.56	206.07	260.11	1636.8	-26.584	174.65	861.91	-209.89	236.58	809.06	-218.75	221.3	1296.1	-211.75	161.01	995.42	-225.99	164.51	1147.8	-223.57	163.33	185.38	128.51	418.83	1020.2	380.45	284.94	30.89	159.76	351.32	1032.9	202.95	139.09	1147.2	-149.81	176.2	25.629	208.83	166.77	271.75	201.15	242.42	1510.4	46.171	200.24	497.33	217.38	422.11	727.53	-109.29	270.98	1643.7	114.39	137.43	1025.3	101.94	248.72	865.89	-171.34	231.12	38.676	132.91	504.24	913.76	371.42	223.02	361.31	145.94	343.96	1030.4	-83.528	194.22	272.95	136.02	420.13	1249.3	37.701	138.41	1287.9	51.376	374.25	1423.6	40.174	172.96	1421.4	183.31	134.24	1017.2	24.573	88.786	73.547	165.67	333.04	1148.5	363.49	359.42	705.24	-137.7	407.79	522.52	-117.57	329.8	1301.8	309.15	511.08	315.72	-56.101	303.16	1464.3	-126.63	528.73	221.21	-62.117	32.648	39.261	114.06	438.33	1687.8	1.735	236.12	614.16	225.02	477.96	25.05	-61.594	494.11	404.11	-52.376	542.82	110.31	-27.811	297.69	1118.7	296.08	279.78	799.23	244.78	481.87	314.85	-126.42	443.12	1690	78.34	325.31	1462.7	199.5	419.07	522.47	14.554	260.9	704.72	237.68	209.72	510.84	85.311	518.13	83.218	-108.05	632.04	56.174	-136.13	545.44	945.75	313.32	334.09	795.36	-141.89	711.07	100.7	-75.636	669.02	81.487	-58.174
629	3.145	579.96	917.99	366.73	389.95	615.25	-127.92	329.72	691.71	205.99	265.11	1635.9	-27.25	177.58	861.23	-209.97	239.23	808.06	-218.86	226.05	1295.3	-212.14	164.59	994.81	-226.13	168.81	1147.1	-223.76	164.08	185.29	128.35	425.13	1020.3	380.19	284.96	30.913	159.81	356.16	1031.8	203.14	143.43	1146.7	-149.99	176.16	25.606	208.77	168.06	271.66	200.98	247.47	1509.6	45.571	202.81	497.11	217.18	426.24	725.75	-108.96	275.96	1642.9	113.74	142.54	1024.4	101.44	251.72	864.86	-171.5	231.1	38.631	132.89	511.16	914.47	371.03	224.85	360.87	145.78	349.24	1029.5	-83.743	195.51	272.68	135.86	425.13	1248.5	37.417	143.5	1287.1	50.838	379.34	1422.8	39.688	178	1420.6	182.75	139.47	1016.3	24.126	88.911	73.884	165.63	338.53	1148.1	363.43	363.65	703.84	-137.93	412.34	521.57	-117.32	335.04	1301.3	308.77	518.25	315.98	-55.69	308.31	1463.4	-127.19	537.23	221.68	-61.851	32.676	39.753	114.03	443.3	1687.1	1.0709	239.33	613.79	224.75	489.01	24.764	-62.226	500.03	404.14	-51.833	552.56	110.86	-27.666	303.24	1118.1	296.02	283.92	798.58	244.44	489.52	314.87	-126.21	448.09	1689.3	77.677	330.34	1462	198.94	422.42	521.14	15.288	264.55	704.21	237.37	212.56	510.49	85.08	528.92	83.612	-108.21	643.5	57.787	-135.46	552.15	946.69	312.82	338.69	794.07	-141.98	721.54	103.04	-74.012	679.54	83.252	-56.999
630	3.15	586.79	919.07	366.23	393.92	613.77	-128.19	333.46	690.86	205.91	270.1	1635	-27.954	180.62	860.51	-210.11	241.99	807.03	-219	230.86	1294.4	-212.56	168.28	994.17	-226.31	173.21	1146.4	-224	164.86	185.21	128.17	431.33	1020.2	379.9	284.97	30.932	159.85	360.98	1030.7	203.35	147.86	1146.2	-150.23	176.11	25.584	208.71	169.4	271.57	200.8	252.52	1508.8	44.939	205.48	496.88	216.97	430.5	724.08	-108.71	280.94	1642.1	113.06	147.67	1023.6	100.9	254.84	863.81	-171.7	231.08	38.584	132.87	517.97	915.13	370.63	226.77	360.41	145.61	354.54	1028.7	-83.973	196.85	272.4	135.69	430.13	1247.7	37.114	148.6	1286.3	50.27	384.43	1422	39.174	183.04	1419.9	182.17	144.71	1015.4	23.634	89.053	74.25	165.59	343.96	1147.7	363.33	368	702.5	-138.19	417.03	520.67	-117.08	340.25	1300.7	308.37	525.17	316.13	-55.291	313.47	1462.5	-127.78	545.27	222.01	-61.55	32.707	40.296	114.01	448.27	1686.3	0.37335	242.62	613.4	224.49	499.2	24.499	-62.618	505.89	404.09	-51.354	561.65	111.31	-27.442	308.75	1117.5	295.92	288.09	797.92	244.08	496.82	314.8	-125.98	453.07	1688.6	76.979	335.37	1461.3	198.36	426.03	519.97	15.927	268.25	703.69	237.04	215.54	510.11	84.841	538.88	83.915	-108.24	654.01	59.113	-134.78	558.76	947.57	312.32	343.37	792.82	-142.13	731.22	104.99	-72.573	689.28	84.714	-55.914
631	3.155	593.5	920.09	365.71	398.1	612.39	-128.43	337.27	690.01	205.84	275.1	1634.1	-28.696	183.78	859.77	-210.31	244.88	805.98	-219.19	235.73	1293.6	-213.02	172.08	993.49	-226.55	177.7	1145.7	-224.27	165.69	185.14	127.99	437.44	1020.2	379.58	284.98	30.944	159.89	365.77	1029.8	203.57	152.38	1145.6	-150.51	176.06	25.561	208.64	170.81	271.49	200.62	257.58	1508	44.276	208.24	496.64	216.74	434.91	722.55	-108.55	285.93	1641.4	112.34	152.82	1022.8	100.31	258.06	862.73	-171.93	231.06	38.536	132.85	524.67	915.73	370.22	228.76	359.94	145.44	359.86	1027.8	-84.221	198.26	272.12	135.51	435.12	1246.9	36.79	153.7	1285.4	49.675	389.53	1421.2	38.632	188.08	1419.1	181.55	149.96	1014.5	23.097	89.214	74.647	165.55	349.32	1147.2	363.18	372.5	701.24	-138.48	421.88	519.81	-116.87	345.43	1300.2	307.94	531.84	316.15	-54.901	318.63	1461.6	-128.4	552.85	222.2	-61.212	32.741	40.894	113.98	453.25	1685.6	-0.35766	245.98	612.99	224.22	508.53	24.235	-62.767	511.71	403.94	-50.935	570.09	111.61	-27.139	314.22	1117	295.77	292.3	797.26	243.69	503.78	314.62	-125.72	458.04	1687.9	76.248	340.41	1460.6	197.75	429.94	518.97	16.472	272.02	703.16	236.72	218.64	509.7	84.596	548.01	84.092	-108.12	663.56	60.107	-134.09	565.27	948.4	311.82	348.14	791.64	-142.34	740.11	106.48	-71.329	698.22	85.836	-54.921
632	3.16	600.09	921.04	365.19	402.51	611.13	-128.63	341.14	689.16	205.77	280.1	1633.2	-29.477	187.06	858.99	-210.56	247.89	804.9	-219.4	240.66	1292.6	-213.51	176	992.77	-226.84	182.3	1144.9	-224.6	166.56	185.08	127.8	443.45	1020.1	379.23	284.98	30.949	159.92	370.55	1028.8	203.78	156.99	1145	-150.84	176.01	25.54	208.57	172.27	271.42	200.42	262.64	1507.2	43.582	211.11	496.39	216.49	439.48	721.18	-108.47	290.91	1640.6	111.58	157.98	1021.9	99.686	261.4	861.62	-172.2	231.06	38.488	132.85	531.25	916.28	369.79	230.83	359.46	145.25	365.2	1027	-84.488	199.72	271.84	135.33	440.12	1246.1	36.443	158.82	1284.6	49.055	394.63	1420.4	38.062	193.13	1418.4	180.9	155.22	1013.6	22.514	89.396	75.077	165.52	354.62	1146.7	363	377.17	700.08	-138.8	426.87	518.99	-116.68	350.58	1299.7	307.48	538.26	316.03	-54.519	323.81	1460.7	-129.04	559.97	222.22	-60.838	32.779	41.551	113.96	458.22	1684.8	-1.1222	249.43	612.58	223.95	516.99	23.956	-62.683	517.48	403.68	-50.571	577.88	111.74	-26.761	319.63	1116.3	295.58	296.55	796.59	243.28	510.4	314.33	-125.43	463.01	1687.2	75.484	345.46	1459.9	197.11	434.15	518.13	16.928	275.85	702.63	236.38	221.87	509.25	84.345	556.3	84.116	-107.86	672.15	60.736	-133.42	571.66	949.17	311.31	353.02	790.53	-142.62	748.23	107.5	-70.281	706.38	86.585	-54.021
633	3.165	606.56	921.93	364.67	407.19	610.03	-128.78	345.07	688.31	205.7	285.1	1632.3	-30.297	190.47	858.19	-210.87	251.03	803.79	-219.66	245.64	1291.7	-214.03	180.03	992.02	-227.18	186.98	1144.1	-224.96	167.46	185.03	127.6	449.36	1020	378.85	284.97	30.944	159.94	375.32	1027.9	203.99	161.67	1144.3	-151.22	175.97	25.519	208.49	173.79	271.36	200.23	267.7	1506.4	42.858	214.07	496.14	216.23	444.23	720.01	-108.46	295.9	1639.8	110.8	163.18	1021	99.016	264.85	860.49	-172.5	231.06	38.441	132.85	537.71	916.77	369.35	232.98	358.97	145.07	370.56	1026.1	-84.777	201.23	271.55	135.16	445.13	1245.3	36.07	163.95	1283.8	48.41	399.75	1419.6	37.464	198.17	1417.6	180.22	160.49	1012.7	21.888	89.6	75.543	165.5	359.86	1146.2	362.77	382.03	699.03	-139.14	432.02	518.21	-116.51	355.71	1299.1	306.99	544.44	315.77	-54.144	328.98	1459.7	-129.7	566.65	222.07	-60.429	32.821	42.269	113.95	463.19	1684	-1.9203	252.95	612.17	223.67	524.57	23.654	-62.385	523.21	403.31	-50.257	585.03	111.68	-26.311	324.99	1115.7	295.34	300.85	795.92	242.85	516.69	313.91	-125.1	467.99	1686.5	74.686	350.51	1459.2	196.46	438.68	517.45	17.301	279.73	702.1	236.04	225.23	508.78	84.089	563.78	83.972	-107.47	679.8	60.98	-132.75	577.96	949.88	310.8	358.02	789.52	-142.96	755.59	108.01	-69.417	713.77	86.937	-53.209
634	3.17	612.91	922.74	364.14	412.14	609.08	-128.87	349.07	687.48	205.63	290.1	1631.4	-31.156	194.01	857.36	-211.24	254.29	802.67	-219.95	250.69	1290.7	-214.58	184.18	991.23	-227.57	191.77	1143.3	-225.37	168.41	185	127.41	455.18	1019.8	378.44	284.96	30.931	159.95	380.08	1027.1	204.17	166.44	1143.6	-151.65	175.93	25.5	208.42	175.36	271.32	200.04	272.76	1505.5	42.103	217.12	495.87	215.95	449.18	719.05	-108.54	300.88	1639	109.97	168.39	1020.2	98.305	268.43	859.34	-172.85	231.06	38.398	132.86	544.06	917.21	368.9	235.21	358.48	144.88	375.95	1025.3	-85.093	202.81	271.26	134.99	450.16	1244.5	35.669	169.08	1282.9	47.743	404.87	1418.8	36.837	203.23	1416.9	179.51	165.77	1011.8	21.221	89.828	76.049	165.48	365.03	1145.7	362.5	387.08	698.11	-139.5	437.33	517.45	-116.36	360.8	1298.5	306.47	550.4	315.36	-53.773	334.16	1458.8	-130.39	572.9	221.73	-59.989	32.868	43.053	113.94	468.16	1683.3	-2.7517	256.54	611.75	223.39	531.28	23.33	-61.904	528.92	402.83	-49.982	591.56	111.43	-25.795	330.3	1115.1	295.05	305.19	795.25	242.4	522.66	313.35	-124.72	472.96	1685.8	73.856	355.57	1458.5	195.78	443.53	516.89	17.601	283.69	701.57	235.69	228.72	508.29	83.829	570.47	83.653	-106.97	686.53	60.83	-132.08	584.14	950.54	310.28	363.14	788.61	-143.38	762.23	107.98	-68.72	720.42	86.87	-52.475
